<svg width="100" height="100" viewBox="0 0 101 101" fill="none" xmlns="http://www.w3.org/2000/svg">
                        <circle cx="50.5" cy="50.5" r="50.5" fill="#8d8d8d"/>
                        <path d="M42.5 68.3203C41.875 68.6641 40.9922 68.9609 39.8516 69.2109C38.7266 69.4766 37.2109 69.6094 35.3047 69.6094C33.4141 69.6094 31.5625 69.4062 29.75 69C26.3594 68.25 24.0078 66.9062 22.6953 64.9688C21.3984 63.0156 20.75 60.5781 20.75 57.6562V46.1016C20.75 41.3359 22.2656 38.0078 25.2969 36.1172C27.75 34.5859 31.3359 33.8203 36.0547 33.8203C43.6328 33.8359 48.125 35.9688 49.5312 40.2188C50 41.6562 50.2344 43.3828 50.2344 45.3984V45.9375L43.3906 46.4531V45.0703C43.3906 42.8203 42.8438 41.2969 41.75 40.5C40.6562 39.6875 38.7344 39.2812 35.9844 39.2812C33.25 39.2812 31.1875 39.7188 29.7969 40.5938C28.4219 41.4688 27.7344 43.0312 27.7344 45.2812V58.3594C27.7344 60.6562 28.4453 62.1953 29.8672 62.9766C31.2891 63.7578 33.3516 64.1484 36.0547 64.1484C38.7578 64.1484 40.75 63.7578 42.0312 62.9766C43.3281 62.1953 43.9766 60.6562 43.9766 58.3594V55.8281H36.9922V51.2578H50.2578V69H46.5781L45.4766 65.0156C45.2734 65.7031 44.8828 66.3438 44.3047 66.9375C43.7422 67.5156 43.1406 67.9766 42.5 68.3203ZM59.1406 69V34.4062H66.1016V63.5625H80.5625V69H59.1406Z" fill="white"/>
                        <mask id="mask0" mask-type="alpha" maskUnits="userSpaceOnUse" x="20" y="33" width="61" height="37">
                        <path d="M42.5 68.3203C41.875 68.6641 40.9922 68.9609 39.8516 69.2109C38.7266 69.4766 37.2109 69.6094 35.3047 69.6094C33.4141 69.6094 31.5625 69.4062 29.75 69C26.3594 68.25 24.0078 66.9062 22.6953 64.9688C21.3984 63.0156 20.75 60.5781 20.75 57.6562V46.1016C20.75 41.3359 22.2656 38.0078 25.2969 36.1172C27.75 34.5859 31.3359 33.8203 36.0547 33.8203C43.6328 33.8359 48.125 35.9688 49.5312 40.2188C50 41.6562 50.2344 43.3828 50.2344 45.3984V45.9375L43.3906 46.4531V45.0703C43.3906 42.8203 42.8438 41.2969 41.75 40.5C40.6562 39.6875 38.7344 39.2812 35.9844 39.2812C33.25 39.2812 31.1875 39.7188 29.7969 40.5938C28.4219 41.4688 27.7344 43.0312 27.7344 45.2812V58.3594C27.7344 60.6562 28.4453 62.1953 29.8672 62.9766C31.2891 63.7578 33.3516 64.1484 36.0547 64.1484C38.7578 64.1484 40.75 63.7578 42.0312 62.9766C43.3281 62.1953 43.9766 60.6562 43.9766 58.3594V55.8281H36.9922V51.2578H50.2578V69H46.5781L45.4766 65.0156C45.2734 65.7031 44.8828 66.3438 44.3047 66.9375C43.7422 67.5156 43.1406 67.9766 42.5 68.3203ZM59.1406 69V34.4062H66.1016V63.5625H80.5625V69H59.1406Z" fill="white"/>
                        </mask>
                        <g mask="url(#mask0)">
                        <path d="M32.7355 60.5841C20.2478 51.7491 24.7187 22 24.7187 22C24.7187 22 9.53184 86.9296 17.0468 74.9494C24.5617 62.9692 54.0042 85.361 64.9694 90.2359C75.9345 95.1108 73.1928 68.6094 64.9694 55.5C56.7459 42.3906 45.2233 69.419 32.7355 60.5841Z" fill="url(#paint0_linear)"/>
                        </g>
                        <defs>
                        <linearGradient id="paint0_linear" x1="8.5" y1="29.5" x2="78" y2="78.5" gradientUnits="userSpaceOnUse">
                        <stop stop-color="#D91919"/>
                        <stop offset="1" stop-color="white"/>
                        </linearGradient>
                        </defs>
                    </svg>